<mxfile host="app.diagrams.net" agent="Mozilla/5.0 (X11; Ubuntu; Linux x86_64; rv:129.0) Gecko/20100101 Firefox/129.0" version="24.8.4">
  <diagram name="Page-1" id="S0pT_RN4gXJ3lOArxrLC">
    <mxGraphModel dx="830" dy="444" grid="1" gridSize="10" guides="1" tooltips="1" connect="1" arrows="1" fold="1" page="1" pageScale="1" pageWidth="850" pageHeight="1100" math="0" shadow="0">
      <root>
        <mxCell id="0" />
        <mxCell id="1" parent="0" />
        <mxCell id="kd9yZf11KpfJZ0dXSWhp-5" value="Internet" style="ellipse;shape=cloud;whiteSpace=wrap;html=1;fontStyle=1;fontSize=16;" parent="1" vertex="1">
          <mxGeometry x="170" y="20" width="190" height="140" as="geometry" />
        </mxCell>
        <mxCell id="kd9yZf11KpfJZ0dXSWhp-8" value="Mobile App" style="verticalLabelPosition=bottom;verticalAlign=top;html=1;shadow=0;dashed=0;strokeWidth=1;shape=mxgraph.android.phone2;strokeColor=#c0c0c0;fillColor=#E6E6E6;fontStyle=1;fontSize=16;" parent="1" vertex="1">
          <mxGeometry x="560" y="190" width="40" height="80" as="geometry" />
        </mxCell>
        <mxCell id="kd9yZf11KpfJZ0dXSWhp-10" value="&lt;div&gt;Backend&lt;/div&gt;&lt;div&gt;Services&lt;/div&gt;" style="image;points=[];aspect=fixed;html=1;align=center;shadow=0;dashed=0;image=img/lib/allied_telesis/storage/Datacenter_Server_Half_Rack_ToR.svg;fontStyle=1;fontSize=16;" parent="1" vertex="1">
          <mxGeometry x="20" y="28.19999999999999" width="88.2" height="114.6" as="geometry" />
        </mxCell>
        <mxCell id="kd9yZf11KpfJZ0dXSWhp-11" value="" style="endArrow=none;html=1;rounded=0;strokeWidth=4;" parent="1" edge="1">
          <mxGeometry width="50" height="50" relative="1" as="geometry">
            <mxPoint x="350" y="87" as="sourcePoint" />
            <mxPoint x="436" y="87" as="targetPoint" />
          </mxGeometry>
        </mxCell>
        <mxCell id="kd9yZf11KpfJZ0dXSWhp-12" value="" style="endArrow=none;html=1;rounded=0;strokeWidth=4;exitX=1;exitY=0.5;exitDx=0;exitDy=0;" parent="1" edge="1">
          <mxGeometry width="50" height="50" relative="1" as="geometry">
            <mxPoint x="509" y="85.5" as="sourcePoint" />
            <mxPoint x="595" y="45" as="targetPoint" />
          </mxGeometry>
        </mxCell>
        <mxCell id="kd9yZf11KpfJZ0dXSWhp-13" value="" style="endArrow=none;html=1;rounded=1;strokeWidth=4;exitX=1;exitY=0.75;exitDx=0;exitDy=0;curved=0;" parent="1" edge="1">
          <mxGeometry width="50" height="50" relative="1" as="geometry">
            <mxPoint x="503" y="113" as="sourcePoint" />
            <mxPoint x="560" y="180" as="targetPoint" />
          </mxGeometry>
        </mxCell>
        <mxCell id="kd9yZf11KpfJZ0dXSWhp-14" value="" style="endArrow=none;html=1;rounded=0;strokeWidth=4;" parent="1" edge="1">
          <mxGeometry width="50" height="50" relative="1" as="geometry">
            <mxPoint x="110" y="88" as="sourcePoint" />
            <mxPoint x="180" y="88" as="targetPoint" />
          </mxGeometry>
        </mxCell>
        <mxCell id="wL0_xeo5k2d1t4qGG55m-1" value="" style="endArrow=none;html=1;rounded=1;strokeWidth=4;curved=0;" parent="1" edge="1">
          <mxGeometry width="50" height="50" relative="1" as="geometry">
            <mxPoint x="630" y="100" as="sourcePoint" />
            <mxPoint x="600" y="180" as="targetPoint" />
          </mxGeometry>
        </mxCell>
        <mxCell id="5jl5Ksb9FdyTYwqCzrRi-1" value="Computer" style="pointerEvents=1;shadow=0;dashed=0;html=1;strokeColor=none;fillColor=#4495D1;labelPosition=center;verticalLabelPosition=bottom;verticalAlign=top;align=center;outlineConnect=0;shape=mxgraph.veeam.laptop;fontStyle=1;fontSize=16;" parent="1" vertex="1">
          <mxGeometry x="360" y="200" width="90" height="70" as="geometry" />
        </mxCell>
        <mxCell id="5jl5Ksb9FdyTYwqCzrRi-2" value="" style="endArrow=none;html=1;rounded=1;strokeWidth=4;curved=0;" parent="1" edge="1">
          <mxGeometry width="50" height="50" relative="1" as="geometry">
            <mxPoint x="438" y="113" as="sourcePoint" />
            <mxPoint x="410" y="190" as="targetPoint" />
          </mxGeometry>
        </mxCell>
        <mxCell id="4Mwm-Hbe9_PdHP5P0pgo-2" value="Hotspot" style="html=1;verticalLabelPosition=bottom;align=center;labelBackgroundColor=#ffffff;verticalAlign=top;strokeWidth=2;strokeColor=#0080F0;shadow=0;dashed=0;shape=mxgraph.ios7.icons.wifi;pointerEvents=1;fontStyle=1;fontSize=16;" vertex="1" parent="1">
          <mxGeometry x="443" y="70" width="60" height="50" as="geometry" />
        </mxCell>
        <mxCell id="4Mwm-Hbe9_PdHP5P0pgo-6" value="Smart Plug" style="sketch=0;aspect=fixed;pointerEvents=1;shadow=0;dashed=0;html=1;strokeColor=none;labelPosition=center;verticalLabelPosition=bottom;verticalAlign=top;align=center;fillColor=#00188D;shape=mxgraph.mscae.enterprise.plug_and_play;fontStyle=1;fontSize=16;" vertex="1" parent="1">
          <mxGeometry x="609" y="20" width="40" height="50" as="geometry" />
        </mxCell>
      </root>
    </mxGraphModel>
  </diagram>
</mxfile>
